<mxfile host="app.diagrams.net" agent="Mozilla/5.0 (Windows NT 10.0; Win64; x64) AppleWebKit/537.36 (KHTML, like Gecko) Chrome/134.0.0.0 Safari/537.36" version="26.1.1">
  <diagram name="Page-1" id="BPb7KUuqTN_WfBmcmn8l">
    <mxGraphModel dx="3591" dy="1854" grid="0" gridSize="10" guides="1" tooltips="1" connect="1" arrows="1" fold="1" page="0" pageScale="1" pageWidth="850" pageHeight="1100" math="0" shadow="0">
      <root>
        <mxCell id="0" />
        <mxCell id="1" parent="0" />
        <mxCell id="NuwVipmZnlm5jZXnKbMI-6" value="User(absract)" style="swimlane;fontStyle=0;childLayout=stackLayout;horizontal=1;startSize=30;horizontalStack=0;resizeParent=1;resizeParentMax=0;resizeLast=0;collapsible=1;marginBottom=0;whiteSpace=wrap;html=1;" parent="1" vertex="1">
          <mxGeometry x="-758" y="-128" width="140" height="131" as="geometry" />
        </mxCell>
        <mxCell id="NuwVipmZnlm5jZXnKbMI-10" value="+userID&lt;div&gt;+email&lt;/div&gt;&lt;div&gt;+password&lt;/div&gt;&lt;div&gt;+name&lt;/div&gt;&lt;div&gt;+address&lt;/div&gt;&lt;div&gt;+phoneNum&lt;/div&gt;" style="rounded=0;whiteSpace=wrap;html=1;align=left;" parent="NuwVipmZnlm5jZXnKbMI-6" vertex="1">
          <mxGeometry y="30" width="140" height="101" as="geometry" />
        </mxCell>
        <mxCell id="NuwVipmZnlm5jZXnKbMI-11" style="edgeStyle=none;curved=1;rounded=0;orthogonalLoop=1;jettySize=auto;html=1;exitX=0.5;exitY=1;exitDx=0;exitDy=0;fontSize=12;startSize=8;endSize=8;" parent="NuwVipmZnlm5jZXnKbMI-6" source="NuwVipmZnlm5jZXnKbMI-10" target="NuwVipmZnlm5jZXnKbMI-10" edge="1">
          <mxGeometry relative="1" as="geometry" />
        </mxCell>
        <mxCell id="NuwVipmZnlm5jZXnKbMI-12" value="&lt;div style=&quot;&quot;&gt;&lt;span style=&quot;background-color: transparent;&quot;&gt;+User(userId, email, password, name, address, phoneNum)&lt;/span&gt;&lt;/div&gt;&lt;div style=&quot;&quot;&gt;&lt;span style=&quot;background-color: transparent;&quot;&gt;&lt;br&gt;&lt;/span&gt;&lt;/div&gt;&lt;div style=&quot;&quot;&gt;&lt;span style=&quot;background-color: transparent; color: light-dark(rgb(0, 0, 0), rgb(255, 255, 255));&quot;&gt;+getUserId()&lt;/span&gt;&lt;/div&gt;&lt;div style=&quot;&quot;&gt;+getEmail()&lt;/div&gt;&lt;div style=&quot;&quot;&gt;+setEmail()&lt;/div&gt;&lt;div style=&quot;&quot;&gt;+getName()&lt;/div&gt;&lt;div style=&quot;&quot;&gt;+setName()&lt;/div&gt;&lt;div&gt;&lt;br&gt;&lt;/div&gt;" style="rounded=0;whiteSpace=wrap;html=1;align=left;" parent="1" vertex="1">
          <mxGeometry x="-758" width="140" height="163" as="geometry" />
        </mxCell>
        <mxCell id="NuwVipmZnlm5jZXnKbMI-13" value="Booking" style="swimlane;fontStyle=0;childLayout=stackLayout;horizontal=1;startSize=30;horizontalStack=0;resizeParent=1;resizeParentMax=0;resizeLast=0;collapsible=1;marginBottom=0;whiteSpace=wrap;html=1;" parent="1" vertex="1">
          <mxGeometry x="-486" y="-88" width="140" height="70" as="geometry" />
        </mxCell>
        <mxCell id="NuwVipmZnlm5jZXnKbMI-14" value="+bookingID&lt;br&gt;&lt;div&gt;+time&lt;/div&gt;" style="rounded=0;whiteSpace=wrap;html=1;align=left;" parent="NuwVipmZnlm5jZXnKbMI-13" vertex="1">
          <mxGeometry y="30" width="140" height="40" as="geometry" />
        </mxCell>
        <mxCell id="NuwVipmZnlm5jZXnKbMI-15" style="edgeStyle=none;curved=1;rounded=0;orthogonalLoop=1;jettySize=auto;html=1;exitX=0.5;exitY=1;exitDx=0;exitDy=0;fontSize=12;startSize=8;endSize=8;" parent="NuwVipmZnlm5jZXnKbMI-13" source="NuwVipmZnlm5jZXnKbMI-14" target="NuwVipmZnlm5jZXnKbMI-14" edge="1">
          <mxGeometry relative="1" as="geometry" />
        </mxCell>
        <mxCell id="NuwVipmZnlm5jZXnKbMI-16" value="&lt;div style=&quot;&quot;&gt;+Booking(bookingId, time)&lt;/div&gt;&lt;div style=&quot;&quot;&gt;&lt;br&gt;&lt;/div&gt;&lt;div style=&quot;&quot;&gt;+getBookingId()&lt;/div&gt;&lt;div style=&quot;&quot;&gt;+getTIme()&lt;/div&gt;&lt;div style=&quot;&quot;&gt;+setTIme()&lt;/div&gt;&lt;div style=&quot;&quot;&gt;&lt;br&gt;&lt;/div&gt;" style="rounded=0;whiteSpace=wrap;html=1;align=left;" parent="1" vertex="1">
          <mxGeometry x="-486" y="-18" width="140" height="103" as="geometry" />
        </mxCell>
        <mxCell id="NuwVipmZnlm5jZXnKbMI-17" value="Cat" style="swimlane;fontStyle=0;childLayout=stackLayout;horizontal=1;startSize=30;horizontalStack=0;resizeParent=1;resizeParentMax=0;resizeLast=0;collapsible=1;marginBottom=0;whiteSpace=wrap;html=1;" parent="1" vertex="1">
          <mxGeometry x="-302" y="-445" width="140" height="201" as="geometry" />
        </mxCell>
        <mxCell id="NuwVipmZnlm5jZXnKbMI-19" style="edgeStyle=none;curved=1;rounded=0;orthogonalLoop=1;jettySize=auto;html=1;exitX=0.5;exitY=1;exitDx=0;exitDy=0;fontSize=12;startSize=8;endSize=8;" parent="NuwVipmZnlm5jZXnKbMI-17" source="NuwVipmZnlm5jZXnKbMI-18" target="NuwVipmZnlm5jZXnKbMI-18" edge="1">
          <mxGeometry relative="1" as="geometry" />
        </mxCell>
        <mxCell id="NuwVipmZnlm5jZXnKbMI-18" value="+catId&lt;div&gt;+catImage&lt;/div&gt;&lt;div&gt;+name&lt;/div&gt;&lt;div&gt;+age&lt;/div&gt;&lt;div&gt;+gender&lt;/div&gt;&lt;div&gt;+breed&lt;/div&gt;&lt;div&gt;+color&lt;/div&gt;&lt;div&gt;+weigjt&lt;/div&gt;&lt;div&gt;+description&lt;/div&gt;&lt;div&gt;+inboundDate&lt;/div&gt;" style="rounded=0;whiteSpace=wrap;html=1;align=left;" parent="NuwVipmZnlm5jZXnKbMI-17" vertex="1">
          <mxGeometry y="30" width="140" height="171" as="geometry" />
        </mxCell>
        <mxCell id="NuwVipmZnlm5jZXnKbMI-20" value="&lt;div style=&quot;&quot;&gt;+Cat(catId, catImage, name, age, gender, breed, color, weight, description, inboundDate)&lt;/div&gt;&lt;div style=&quot;&quot;&gt;&lt;br&gt;&lt;/div&gt;&lt;div style=&quot;&quot;&gt;+getCatid()&lt;/div&gt;&lt;div style=&quot;&quot;&gt;+getName&lt;/div&gt;&lt;div style=&quot;&quot;&gt;+setName&lt;/div&gt;&lt;div style=&quot;&quot;&gt;+getAge()&lt;/div&gt;&lt;div style=&quot;&quot;&gt;+setAge()&lt;/div&gt;" style="rounded=0;whiteSpace=wrap;html=1;align=left;" parent="1" vertex="1">
          <mxGeometry x="-302" y="-244" width="140" height="176" as="geometry" />
        </mxCell>
        <mxCell id="NuwVipmZnlm5jZXnKbMI-21" value="manager(final)" style="swimlane;fontStyle=0;childLayout=stackLayout;horizontal=1;startSize=30;horizontalStack=0;resizeParent=1;resizeParentMax=0;resizeLast=0;collapsible=1;marginBottom=0;whiteSpace=wrap;html=1;" parent="1" vertex="1">
          <mxGeometry x="-977" y="-205" width="140" height="88" as="geometry" />
        </mxCell>
        <mxCell id="NuwVipmZnlm5jZXnKbMI-22" value="+managerid&lt;div&gt;+j&lt;span style=&quot;background-color: transparent; color: light-dark(rgb(0, 0, 0), rgb(255, 255, 255));&quot;&gt;obTitle&lt;/span&gt;&lt;/div&gt;" style="rounded=0;whiteSpace=wrap;html=1;align=left;" parent="NuwVipmZnlm5jZXnKbMI-21" vertex="1">
          <mxGeometry y="30" width="140" height="58" as="geometry" />
        </mxCell>
        <mxCell id="NuwVipmZnlm5jZXnKbMI-23" style="edgeStyle=none;curved=1;rounded=0;orthogonalLoop=1;jettySize=auto;html=1;exitX=0.5;exitY=1;exitDx=0;exitDy=0;fontSize=12;startSize=8;endSize=8;" parent="NuwVipmZnlm5jZXnKbMI-21" source="NuwVipmZnlm5jZXnKbMI-22" target="NuwVipmZnlm5jZXnKbMI-22" edge="1">
          <mxGeometry relative="1" as="geometry" />
        </mxCell>
        <mxCell id="NuwVipmZnlm5jZXnKbMI-24" value="&lt;div style=&quot;&quot;&gt;&lt;div&gt;+Manager(managerId&lt;/div&gt;&lt;div&gt;,jobTitle,&lt;span style=&quot;background-color: transparent; color: light-dark(rgb(0, 0, 0), rgb(255, 255, 255));&quot;&gt;)&lt;/span&gt;&lt;/div&gt;&lt;div&gt;&lt;br&gt;&lt;/div&gt;&lt;/div&gt;&lt;div style=&quot;&quot;&gt;+getManagerId()&lt;/div&gt;&lt;div style=&quot;&quot;&gt;+getJobTitle()&lt;/div&gt;&lt;div style=&quot;&quot;&gt;+setJobTitle()&lt;/div&gt;" style="rounded=0;whiteSpace=wrap;html=1;align=left;" parent="1" vertex="1">
          <mxGeometry x="-977" y="-117" width="140" height="99" as="geometry" />
        </mxCell>
        <mxCell id="NuwVipmZnlm5jZXnKbMI-25" value="Rescue" style="swimlane;fontStyle=0;childLayout=stackLayout;horizontal=1;startSize=30;horizontalStack=0;resizeParent=1;resizeParentMax=0;resizeLast=0;collapsible=1;marginBottom=0;whiteSpace=wrap;html=1;" parent="1" vertex="1">
          <mxGeometry x="-757" y="207" width="140" height="131" as="geometry" />
        </mxCell>
        <mxCell id="NuwVipmZnlm5jZXnKbMI-26" value="+rescueId&lt;div&gt;l+ocation&lt;/div&gt;&lt;div&gt;+date&lt;/div&gt;&lt;div&gt;+desCatName&lt;/div&gt;&lt;div&gt;+descriptionOfCat&lt;/div&gt;&lt;div&gt;+descriptionOfEvent&lt;/div&gt;&lt;div&gt;+status&lt;/div&gt;" style="rounded=0;whiteSpace=wrap;html=1;align=left;" parent="NuwVipmZnlm5jZXnKbMI-25" vertex="1">
          <mxGeometry y="30" width="140" height="101" as="geometry" />
        </mxCell>
        <mxCell id="NuwVipmZnlm5jZXnKbMI-27" style="edgeStyle=none;curved=1;rounded=0;orthogonalLoop=1;jettySize=auto;html=1;exitX=0.5;exitY=1;exitDx=0;exitDy=0;fontSize=12;startSize=8;endSize=8;" parent="NuwVipmZnlm5jZXnKbMI-25" source="NuwVipmZnlm5jZXnKbMI-26" target="NuwVipmZnlm5jZXnKbMI-26" edge="1">
          <mxGeometry relative="1" as="geometry" />
        </mxCell>
        <mxCell id="NuwVipmZnlm5jZXnKbMI-28" value="&lt;div style=&quot;&quot;&gt;+Rescue(rescueId, location, date, desCatName, descriptionOfCat, descriptionOfEvent, status)&lt;/div&gt;&lt;div style=&quot;&quot;&gt;&lt;br&gt;&lt;/div&gt;&lt;div style=&quot;&quot;&gt;+getRescueId()&lt;/div&gt;&lt;div style=&quot;&quot;&gt;+getLocation()&lt;/div&gt;&lt;div style=&quot;&quot;&gt;+setLocation()&lt;/div&gt;&lt;div style=&quot;&quot;&gt;+getDate()&lt;/div&gt;&lt;div style=&quot;&quot;&gt;+setDate()&lt;/div&gt;" style="rounded=0;whiteSpace=wrap;html=1;align=left;" parent="1" vertex="1">
          <mxGeometry x="-757" y="338" width="140" height="190" as="geometry" />
        </mxCell>
        <mxCell id="lUxtXO4XZfKJDtzL8v3r-5" value="Consumer(final)" style="swimlane;fontStyle=0;childLayout=stackLayout;horizontal=1;startSize=30;horizontalStack=0;resizeParent=1;resizeParentMax=0;resizeLast=0;collapsible=1;marginBottom=0;whiteSpace=wrap;html=1;" parent="1" vertex="1">
          <mxGeometry x="-972" y="29" width="140" height="69" as="geometry" />
        </mxCell>
        <mxCell id="lUxtXO4XZfKJDtzL8v3r-6" value="+consumerId" style="rounded=0;whiteSpace=wrap;html=1;align=left;" parent="lUxtXO4XZfKJDtzL8v3r-5" vertex="1">
          <mxGeometry y="30" width="140" height="39" as="geometry" />
        </mxCell>
        <mxCell id="lUxtXO4XZfKJDtzL8v3r-7" style="edgeStyle=none;curved=1;rounded=0;orthogonalLoop=1;jettySize=auto;html=1;exitX=0.5;exitY=1;exitDx=0;exitDy=0;fontSize=12;startSize=8;endSize=8;" parent="lUxtXO4XZfKJDtzL8v3r-5" source="lUxtXO4XZfKJDtzL8v3r-6" target="lUxtXO4XZfKJDtzL8v3r-6" edge="1">
          <mxGeometry relative="1" as="geometry" />
        </mxCell>
        <mxCell id="lUxtXO4XZfKJDtzL8v3r-8" value="&lt;div style=&quot;&quot;&gt;&lt;div&gt;+consumer(consumerId,&lt;span style=&quot;background-color: transparent; color: light-dark(rgb(0, 0, 0), rgb(255, 255, 255));&quot;&gt;)&lt;/span&gt;&lt;/div&gt;&lt;/div&gt;&lt;div style=&quot;&quot;&gt;+getconsumerid()&lt;br&gt;&lt;/div&gt;" style="rounded=0;whiteSpace=wrap;html=1;align=left;" parent="1" vertex="1">
          <mxGeometry x="-972" y="96" width="140" height="53" as="geometry" />
        </mxCell>
        <mxCell id="lUxtXO4XZfKJDtzL8v3r-9" value="Employee(final)" style="swimlane;fontStyle=0;childLayout=stackLayout;horizontal=1;startSize=30;horizontalStack=0;resizeParent=1;resizeParentMax=0;resizeLast=0;collapsible=1;marginBottom=0;whiteSpace=wrap;html=1;" parent="1" vertex="1">
          <mxGeometry x="-800" y="-422" width="140" height="77" as="geometry" />
        </mxCell>
        <mxCell id="lUxtXO4XZfKJDtzL8v3r-11" style="edgeStyle=none;curved=1;rounded=0;orthogonalLoop=1;jettySize=auto;html=1;exitX=0.5;exitY=1;exitDx=0;exitDy=0;fontSize=12;startSize=8;endSize=8;" parent="lUxtXO4XZfKJDtzL8v3r-9" source="lUxtXO4XZfKJDtzL8v3r-10" target="lUxtXO4XZfKJDtzL8v3r-10" edge="1">
          <mxGeometry relative="1" as="geometry" />
        </mxCell>
        <mxCell id="lUxtXO4XZfKJDtzL8v3r-10" value="+employeeId&lt;div&gt;+j&lt;span style=&quot;background-color: transparent; color: light-dark(rgb(0, 0, 0), rgb(255, 255, 255));&quot;&gt;obTitle&lt;/span&gt;&lt;/div&gt;&lt;div&gt;&lt;br&gt;&lt;/div&gt;" style="rounded=0;whiteSpace=wrap;html=1;align=left;" parent="lUxtXO4XZfKJDtzL8v3r-9" vertex="1">
          <mxGeometry y="30" width="140" height="47" as="geometry" />
        </mxCell>
        <mxCell id="lUxtXO4XZfKJDtzL8v3r-12" value="&lt;div style=&quot;&quot;&gt;&lt;div&gt;+Employee(employeeId, name,jobTitle,&lt;/div&gt;&lt;div&gt;phoneNumber)&lt;/div&gt;&lt;div&gt;&lt;br&gt;&lt;/div&gt;&lt;/div&gt;&lt;div style=&quot;&quot;&gt;+getEmployeeId()&lt;/div&gt;&lt;div style=&quot;&quot;&gt;+getJobTitle()&lt;/div&gt;&lt;div style=&quot;&quot;&gt;+setJobTitle()&lt;/div&gt;" style="rounded=0;whiteSpace=wrap;html=1;align=left;" parent="1" vertex="1">
          <mxGeometry x="-800" y="-343" width="140" height="119" as="geometry" />
        </mxCell>
        <mxCell id="lUxtXO4XZfKJDtzL8v3r-13" style="edgeStyle=none;curved=1;rounded=0;orthogonalLoop=1;jettySize=auto;html=1;exitX=0.5;exitY=1;exitDx=0;exitDy=0;fontSize=12;startSize=8;endSize=8;" parent="1" source="lUxtXO4XZfKJDtzL8v3r-8" target="lUxtXO4XZfKJDtzL8v3r-8" edge="1">
          <mxGeometry relative="1" as="geometry" />
        </mxCell>
        <mxCell id="2AAPdXGFDxaCkMmqGYCO-7" value="" style="endArrow=classic;html=1;rounded=0;exitX=1;exitY=1;exitDx=0;exitDy=0;entryX=0;entryY=1;entryDx=0;entryDy=0;" edge="1" parent="1" source="NuwVipmZnlm5jZXnKbMI-21" target="NuwVipmZnlm5jZXnKbMI-6">
          <mxGeometry width="50" height="50" relative="1" as="geometry">
            <mxPoint x="-797" y="19" as="sourcePoint" />
            <mxPoint x="-747" y="-31" as="targetPoint" />
          </mxGeometry>
        </mxCell>
        <mxCell id="2AAPdXGFDxaCkMmqGYCO-8" value="" style="endArrow=classic;html=1;rounded=0;exitX=1;exitY=0.5;exitDx=0;exitDy=0;entryX=0;entryY=0.5;entryDx=0;entryDy=0;" edge="1" parent="1" source="lUxtXO4XZfKJDtzL8v3r-5" target="NuwVipmZnlm5jZXnKbMI-12">
          <mxGeometry width="50" height="50" relative="1" as="geometry">
            <mxPoint x="-797" y="19" as="sourcePoint" />
            <mxPoint x="-747" y="-31" as="targetPoint" />
          </mxGeometry>
        </mxCell>
        <mxCell id="2AAPdXGFDxaCkMmqGYCO-9" value="" style="endArrow=none;html=1;rounded=0;exitX=0.5;exitY=0;exitDx=0;exitDy=0;entryX=0;entryY=0;entryDx=0;entryDy=0;" edge="1" parent="1" source="NuwVipmZnlm5jZXnKbMI-13" target="NuwVipmZnlm5jZXnKbMI-20">
          <mxGeometry width="50" height="50" relative="1" as="geometry">
            <mxPoint x="-266" y="-29" as="sourcePoint" />
            <mxPoint x="-216" y="-79" as="targetPoint" />
          </mxGeometry>
        </mxCell>
        <mxCell id="2AAPdXGFDxaCkMmqGYCO-10" value="*" style="text;html=1;align=center;verticalAlign=middle;resizable=0;points=[];autosize=1;strokeColor=none;fillColor=none;" vertex="1" parent="1">
          <mxGeometry x="-427.5" y="-114" width="23" height="26" as="geometry" />
        </mxCell>
        <mxCell id="2AAPdXGFDxaCkMmqGYCO-11" value="1&lt;div&gt;&lt;br&gt;&lt;/div&gt;" style="text;html=1;align=center;verticalAlign=middle;whiteSpace=wrap;rounded=0;" vertex="1" parent="1">
          <mxGeometry x="-342" y="-218" width="60" height="30" as="geometry" />
        </mxCell>
        <mxCell id="2AAPdXGFDxaCkMmqGYCO-12" value="cat" style="text;html=1;align=center;verticalAlign=middle;resizable=0;points=[];autosize=1;strokeColor=none;fillColor=none;" vertex="1" parent="1">
          <mxGeometry x="-342" y="-269.5" width="34" height="26" as="geometry" />
        </mxCell>
        <mxCell id="2AAPdXGFDxaCkMmqGYCO-13" value="" style="endArrow=none;html=1;rounded=0;exitX=1;exitY=1;exitDx=0;exitDy=0;entryX=0;entryY=1;entryDx=0;entryDy=0;" edge="1" parent="1" source="NuwVipmZnlm5jZXnKbMI-10" target="NuwVipmZnlm5jZXnKbMI-13">
          <mxGeometry width="50" height="50" relative="1" as="geometry">
            <mxPoint x="-660" y="-32" as="sourcePoint" />
            <mxPoint x="-610" y="-82" as="targetPoint" />
          </mxGeometry>
        </mxCell>
        <mxCell id="2AAPdXGFDxaCkMmqGYCO-14" value="1" style="text;html=1;align=center;verticalAlign=middle;resizable=0;points=[];autosize=1;strokeColor=none;fillColor=none;" vertex="1" parent="1">
          <mxGeometry x="-618" y="-26" width="25" height="26" as="geometry" />
        </mxCell>
        <mxCell id="2AAPdXGFDxaCkMmqGYCO-15" value="*" style="text;html=1;align=center;verticalAlign=middle;resizable=0;points=[];autosize=1;strokeColor=none;fillColor=none;" vertex="1" parent="1">
          <mxGeometry x="-509" y="-15.5" width="23" height="26" as="geometry" />
        </mxCell>
        <mxCell id="2AAPdXGFDxaCkMmqGYCO-17" value="" style="endArrow=none;html=1;rounded=0;exitX=0;exitY=1;exitDx=0;exitDy=0;entryX=0.5;entryY=1;entryDx=0;entryDy=0;" edge="1" parent="1" source="NuwVipmZnlm5jZXnKbMI-25" target="lUxtXO4XZfKJDtzL8v3r-8">
          <mxGeometry width="50" height="50" relative="1" as="geometry">
            <mxPoint x="-676" y="61" as="sourcePoint" />
            <mxPoint x="-626" y="11" as="targetPoint" />
          </mxGeometry>
        </mxCell>
        <mxCell id="2AAPdXGFDxaCkMmqGYCO-18" value="*" style="text;html=1;align=center;verticalAlign=middle;resizable=0;points=[];autosize=1;strokeColor=none;fillColor=none;" vertex="1" parent="1">
          <mxGeometry x="-781" y="289" width="23" height="26" as="geometry" />
        </mxCell>
        <mxCell id="2AAPdXGFDxaCkMmqGYCO-19" value="1" style="text;html=1;align=center;verticalAlign=middle;resizable=0;points=[];autosize=1;strokeColor=none;fillColor=none;" vertex="1" parent="1">
          <mxGeometry x="-924" y="151" width="25" height="26" as="geometry" />
        </mxCell>
        <mxCell id="2AAPdXGFDxaCkMmqGYCO-20" value="" style="shape=mxgraph.arrows2.wedgeArrow;html=1;bendable=0;startWidth=5.833333333333336;fillColor=strokeColor;defaultFillColor=invert;defaultGradientColor=invert;rounded=0;" edge="1" parent="1">
          <mxGeometry width="100" height="100" relative="1" as="geometry">
            <mxPoint x="-850" y="243" as="sourcePoint" />
            <mxPoint x="-845" y="250" as="targetPoint" />
          </mxGeometry>
        </mxCell>
        <mxCell id="2AAPdXGFDxaCkMmqGYCO-21" value="Has rescues" style="text;html=1;align=center;verticalAlign=middle;resizable=0;points=[];autosize=1;strokeColor=none;fillColor=none;rotation=0;" vertex="1" parent="1">
          <mxGeometry x="-937" y="216" width="85" height="26" as="geometry" />
        </mxCell>
        <mxCell id="2AAPdXGFDxaCkMmqGYCO-24" value="" style="shape=mxgraph.arrows2.wedgeArrow;html=1;bendable=0;startWidth=3.095238095238095;fillColor=strokeColor;defaultFillColor=invert;defaultGradientColor=invert;rounded=0;" edge="1" parent="1">
          <mxGeometry width="100" height="100" relative="1" as="geometry">
            <mxPoint x="-527" y="13.5" as="sourcePoint" />
            <mxPoint x="-521" y="10.5" as="targetPoint" />
          </mxGeometry>
        </mxCell>
        <mxCell id="2AAPdXGFDxaCkMmqGYCO-25" value="has booking" style="text;html=1;align=center;verticalAlign=middle;resizable=0;points=[];autosize=1;strokeColor=none;fillColor=none;rotation=0;" vertex="1" parent="1">
          <mxGeometry x="-610" y="3" width="83" height="26" as="geometry" />
        </mxCell>
        <mxCell id="2AAPdXGFDxaCkMmqGYCO-6" value="" style="endArrow=classic;html=1;rounded=0;exitX=0.5;exitY=1;exitDx=0;exitDy=0;entryX=0.5;entryY=0;entryDx=0;entryDy=0;" edge="1" parent="1" source="lUxtXO4XZfKJDtzL8v3r-12" target="NuwVipmZnlm5jZXnKbMI-6">
          <mxGeometry width="50" height="50" relative="1" as="geometry">
            <mxPoint x="-654" y="-355.0000000000002" as="sourcePoint" />
            <mxPoint x="-671" y="-124" as="targetPoint" />
          </mxGeometry>
        </mxCell>
        <mxCell id="2AAPdXGFDxaCkMmqGYCO-27" value="" style="endArrow=none;dashed=1;html=1;rounded=0;entryX=0;entryY=0.25;entryDx=0;entryDy=0;exitX=0.5;exitY=0;exitDx=0;exitDy=0;" edge="1" parent="1" source="NuwVipmZnlm5jZXnKbMI-21" target="lUxtXO4XZfKJDtzL8v3r-12">
          <mxGeometry width="50" height="50" relative="1" as="geometry">
            <mxPoint x="-636" y="132" as="sourcePoint" />
            <mxPoint x="-577" y="91" as="targetPoint" />
          </mxGeometry>
        </mxCell>
        <mxCell id="2AAPdXGFDxaCkMmqGYCO-28" value="is managed by" style="text;html=1;align=center;verticalAlign=middle;resizable=0;points=[];autosize=1;strokeColor=none;fillColor=none;" vertex="1" parent="1">
          <mxGeometry x="-931" y="-299" width="96" height="26" as="geometry" />
        </mxCell>
        <mxCell id="2AAPdXGFDxaCkMmqGYCO-29" value="" style="shape=mxgraph.arrows2.wedgeArrow;html=1;bendable=0;startWidth=3.095238095238095;fillColor=strokeColor;defaultFillColor=invert;defaultGradientColor=invert;rounded=0;" edge="1" parent="1">
          <mxGeometry width="100" height="100" relative="1" as="geometry">
            <mxPoint x="-890" y="-263" as="sourcePoint" />
            <mxPoint x="-899" y="-254" as="targetPoint" />
          </mxGeometry>
        </mxCell>
        <mxCell id="2AAPdXGFDxaCkMmqGYCO-30" value="1" style="text;html=1;align=center;verticalAlign=middle;resizable=0;points=[];autosize=1;strokeColor=none;fillColor=none;" vertex="1" parent="1">
          <mxGeometry x="-719" y="-224" width="25" height="26" as="geometry" />
        </mxCell>
        <mxCell id="2AAPdXGFDxaCkMmqGYCO-31" value="1" style="text;html=1;align=center;verticalAlign=middle;resizable=0;points=[];autosize=1;strokeColor=none;fillColor=none;" vertex="1" parent="1">
          <mxGeometry x="-685" y="-159" width="25" height="26" as="geometry" />
        </mxCell>
      </root>
    </mxGraphModel>
  </diagram>
</mxfile>
